<?xml version="1.0" encoding="UTF-8" standalone="no" ?>
<!DOCTYPE svg PUBLIC "-//W3C//DTD SVG 1.1//EN" "http://www.w3.org/Graphics/SVG/1.1/DTD/svg11.dtd">
<svg xmlns="http://www.w3.org/2000/svg" xmlns:xlink="http://www.w3.org/1999/xlink" version="1.1" width="400" height="400" viewBox="0 0 400 400" xml:space="preserve">
<desc>Created with Fabric.js 3.6.2</desc>
<defs>
</defs>
<g transform="matrix(10 0 0 10 200 200)"  >
<path style="stroke: none; stroke-width: 1; stroke-dasharray: none; stroke-linecap: butt; stroke-dashoffset: 0; stroke-linejoin: miter; stroke-miterlimit: 4; fill: rgb(54,110,255); fill-rule: nonzero; opacity: 1;"  transform=" translate(-12, -12)" d="M 16.29 8.71 a 1 1 0 0 0 1.42 0 l 4 -4 a 1 1 0 1 0 -1.42 -1.42 L 17 6.59 l -1.29 -1.3 a 1 1 0 0 0 -1.42 1.42 Z M 21 8 a 1 1 0 0 0 -1 1 v 9 a 1 1 0 0 1 -1 1 H 5 a 1 1 0 0 1 -1 -1 V 8.41 L 9.88 14.3 a 3 3 0 0 0 2.11 0.87 a 3.08 3.08 0 0 0 2.16 -0.9 l 1.72 -1.72 a 1 1 0 1 0 -1.42 -1.42 L 12.7 12.88 a 1 1 0 0 1 -1.4 0 L 5.41 7 H 11 a 1 1 0 0 0 0 -2 H 5 A 3 3 0 0 0 2 8 V 18 a 3 3 0 0 0 3 3 H 19 a 3 3 0 0 0 3 -3 V 9 A 1 1 0 0 0 21 8 Z" stroke-linecap="round" />
</g>
</svg>