<?xml version="1.0" encoding="UTF-8" standalone="no" ?>
<!DOCTYPE svg PUBLIC "-//W3C//DTD SVG 1.1//EN" "http://www.w3.org/Graphics/SVG/1.1/DTD/svg11.dtd">
<svg xmlns="http://www.w3.org/2000/svg" xmlns:xlink="http://www.w3.org/1999/xlink" version="1.1" width="400" height="400" viewBox="0 0 400 400" xml:space="preserve">
<desc>Created with Fabric.js 3.6.2</desc>
<defs>
</defs>
<g transform="matrix(0.39 0 0 0.39 221.12 230.16)" id="A_-_142_x2C__cart_x2C__add_to_cart_x2C__basket_x2C__shopping"  >
<path style="stroke: none; stroke-width: 1; stroke-dasharray: none; stroke-linecap: butt; stroke-dashoffset: 0; stroke-linejoin: miter; stroke-miterlimit: 4; fill: rgb(0,0,0); fill-rule: nonzero; opacity: 1;"  transform=" translate(-310.07, -333.22)" d="M 305.732 320.785 c 0 8.896 -3.196 17.061 -8.496 23.409 l 12.14 12.169 c 8.412 -9.482 13.533 -21.941 13.533 -35.578 c 0 -3.668 -0.372 -7.25 -1.076 -10.713 l -16.642 4.488 C 305.541 316.585 305.732 318.662 305.732 320.785 z" stroke-linecap="round" />
</g>
<g transform="matrix(0.39 0 0 0.39 201.6 225.33)" id="A_-_142_x2C__cart_x2C__add_to_cart_x2C__basket_x2C__shopping"  >
<path style="stroke: none; stroke-width: 1; stroke-dasharray: none; stroke-linecap: butt; stroke-dashoffset: 0; stroke-linejoin: miter; stroke-miterlimit: 4; fill: rgb(0,0,0); fill-rule: nonzero; opacity: 1;"  transform=" translate(-260.09, -320.84)" d="M 269.15 374.498 c 13.637 0 26.096 -5.109 35.584 -13.5 L 292.6 348.836 c -6.354 5.32 -14.532 8.531 -23.449 8.531 c -20.146 0 -36.537 -16.411 -36.537 -36.582 c 0 -19.066 14.642 -34.763 33.257 -36.43 V 267.18 c -28.095 1.703 -50.434 25.09 -50.434 53.605 C 215.438 350.402 239.533 374.498 269.15 374.498 z" stroke-linecap="round" />
</g>
<g transform="matrix(0.39 0 0 0.39 180.57 157.06)" id="A_-_142_x2C__cart_x2C__add_to_cart_x2C__basket_x2C__shopping"  >
<path style="stroke: none; stroke-width: 1; stroke-dasharray: none; stroke-linecap: butt; stroke-dashoffset: 0; stroke-linejoin: miter; stroke-miterlimit: 4; fill: rgb(0,0,0); fill-rule: nonzero; opacity: 1;"  transform=" translate(-206.26, -146.07)" d="M 190.169 219.312 l 13.588 -30.249 c 0.077 -0.171 0.17 -0.33 0.273 -0.482 l 52.193 -115.747 h -33.875 L 156.29 219.312 H 190.169 z" stroke-linecap="round" />
</g>
<g transform="matrix(0.39 0 0 0.39 205.15 225.31)" id="A_-_142_x2C__cart_x2C__add_to_cart_x2C__basket_x2C__shopping"  >
<path style="stroke: none; stroke-width: 1; stroke-dasharray: none; stroke-linecap: butt; stroke-dashoffset: 0; stroke-linejoin: miter; stroke-miterlimit: 4; fill: rgb(0,0,0); fill-rule: nonzero; opacity: 1;"  transform=" translate(-269.17, -320.78)" d="M 239.173 320.785 c 0 16.555 13.448 30.022 29.977 30.022 c 16.555 0 30.023 -13.468 30.023 -30.022 c 0 -16.556 -13.469 -30.023 -30.023 -30.023 C 252.621 290.762 239.173 304.229 239.173 320.785 z" stroke-linecap="round" />
</g>
<g transform="matrix(0.39 0 0 0.39 215.73 212.38)" id="A_-_142_x2C__cart_x2C__add_to_cart_x2C__basket_x2C__shopping"  >
<path style="stroke: none; stroke-width: 1; stroke-dasharray: none; stroke-linecap: butt; stroke-dashoffset: 0; stroke-linejoin: miter; stroke-miterlimit: 4; fill: rgb(0,0,0); fill-rule: nonzero; opacity: 1;"  transform=" translate(-296.27, -287.7)" d="M 303.51 308.22 l 16.609 -4.479 c -6.817 -20.295 -25.443 -35.215 -47.689 -36.561 v 17.176 C 286.756 285.636 298.734 295.2 303.51 308.22 z" stroke-linecap="round" />
</g>
<g transform="matrix(0.39 0 0 0.39 205.15 180.66)" id="A_-_142_x2C__cart_x2C__add_to_cart_x2C__basket_x2C__shopping"  >
<polygon style="stroke: none; stroke-width: 1; stroke-dasharray: none; stroke-linecap: butt; stroke-dashoffset: 0; stroke-linejoin: miter; stroke-miterlimit: 4; fill: rgb(0,0,0); fill-rule: nonzero; opacity: 1;"  points="-60.25,-12.81 -71.81,12.81 71.81,12.81 60.25,-12.81 " />
</g>
<g transform="matrix(0.39 0 0 0.39 265.87 180.66)" id="A_-_142_x2C__cart_x2C__add_to_cart_x2C__basket_x2C__shopping"  >
<polygon style="stroke: none; stroke-width: 1; stroke-dasharray: none; stroke-linecap: butt; stroke-dashoffset: 0; stroke-linejoin: miter; stroke-miterlimit: 4; fill: rgb(0,0,0); fill-rule: nonzero; opacity: 1;"  points="-46.89,-12.81 -35.34,12.81 15.28,12.81 46.89,12.81 46.89,-12.81 " />
</g>
<g transform="matrix(0.39 0 0 0.39 144.42 180.66)" id="A_-_142_x2C__cart_x2C__add_to_cart_x2C__basket_x2C__shopping"  >
<polygon style="stroke: none; stroke-width: 1; stroke-dasharray: none; stroke-linecap: butt; stroke-dashoffset: 0; stroke-linejoin: miter; stroke-miterlimit: 4; fill: rgb(0,0,0); fill-rule: nonzero; opacity: 1;"  points="35.38,12.81 46.89,-12.81 -46.89,-12.81 -46.89,12.81 -15.28,12.81 " />
</g>
<g transform="matrix(0.39 0 0 0.39 229.73 157.06)" id="A_-_142_x2C__cart_x2C__add_to_cart_x2C__basket_x2C__shopping"  >
<path style="stroke: none; stroke-width: 1; stroke-dasharray: none; stroke-linecap: butt; stroke-dashoffset: 0; stroke-linejoin: miter; stroke-miterlimit: 4; fill: rgb(0,0,0); fill-rule: nonzero; opacity: 1;"  transform=" translate(-332.11, -146.07)" d="M 334.582 189.062 l 13.596 30.25 h 33.916 L 315.998 72.833 h -33.875 l 52.207 115.772 C 334.424 188.75 334.512 188.9 334.582 189.062 z" stroke-linecap="round" />
</g>
<g transform="matrix(0.39 0 0 0.39 195.1 225.31)" id="A_-_142_x2C__cart_x2C__add_to_cart_x2C__basket_x2C__shopping"  >
<path style="stroke: none; stroke-width: 1; stroke-dasharray: none; stroke-linecap: butt; stroke-dashoffset: 0; stroke-linejoin: miter; stroke-miterlimit: 4; fill: rgb(0,0,0); fill-rule: nonzero; opacity: 1;"  transform=" translate(-243.45, -320.78)" d="M 54.117 415.545 h 78.582 l 0.024 0.152 h 199.044 h 73.851 l 30.451 -189.826 h -48.896 h -41.115 H 192.291 h -41.078 H 102.28 l 29.367 183.114 H 54.117 c -1.811 0 -3.28 1.469 -3.28 3.28 C 50.837 414.076 52.306 415.545 54.117 415.545 z M 331.872 380.181 c 0 1.813 -1.468 3.28 -3.28 3.28 h -16.098 c -1.812 0 -3.279 -1.468 -3.279 -3.28 c 0 -1.812 1.468 -3.279 3.279 -3.279 h 12.818 v -12.771 c 0 -1.811 1.469 -3.279 3.279 -3.279 c 1.813 0 3.28 1.469 3.28 3.279 V 380.181 z M 312.494 258.107 h 16.098 c 1.813 0 3.28 1.469 3.28 3.28 v 16.053 c 0 1.813 -1.468 3.28 -3.28 3.28 c -1.811 0 -3.279 -1.468 -3.279 -3.28 v -12.773 h -12.818 c -1.812 0 -3.279 -1.468 -3.279 -3.279 S 310.683 258.107 312.494 258.107 z M 327.34 304.942 c 0.027 0.076 0.064 0.146 0.086 0.225 c 0.016 0.061 0.017 0.119 0.029 0.18 c 1.309 4.93 2.014 10.103 2.014 15.438 c 0 16.369 -6.572 31.227 -17.21 42.1 c -0.126 0.199 -0.272 0.389 -0.446 0.563 s -0.365 0.319 -0.564 0.446 c -10.878 10.608 -25.733 17.164 -42.098 17.164 c -33.234 0 -60.272 -27.039 -60.272 -60.272 c 0 -33.236 27.039 -60.274 60.272 -60.274 C 296.924 260.511 320.359 279.37 327.34 304.942 z M 206.475 261.388 c 0 -1.812 1.469 -3.28 3.28 -3.28 h 16.091 c 1.812 0 3.28 1.469 3.28 3.28 s -1.468 3.279 -3.28 3.279 h -12.811 v 12.773 c 0 1.813 -1.468 3.28 -3.28 3.28 s -3.28 -1.468 -3.28 -3.28 V 261.388 z M 206.475 364.131 c 0 -1.811 1.469 -3.279 3.28 -3.279 s 3.28 1.469 3.28 3.279 v 12.771 h 12.811 c 1.812 0 3.28 1.468 3.28 3.279 c 0 1.813 -1.468 3.28 -3.28 3.28 h -16.091 c -1.812 0 -3.28 -1.468 -3.28 -3.28 V 364.131 z" stroke-linecap="round" />
</g>
<g transform="matrix(0.39 0 0 0.39 222.19 270.27)" id="A_-_142_x2C__cart_x2C__add_to_cart_x2C__basket_x2C__shopping"  >
<path style="stroke: none; stroke-width: 1; stroke-dasharray: none; stroke-linecap: butt; stroke-dashoffset: 0; stroke-linejoin: miter; stroke-miterlimit: 4; fill: rgb(0,0,0); fill-rule: nonzero; opacity: 1;"  transform=" translate(-312.8, -435.89)" d="M 408.676 432.607 H 216.923 c -1.812 0 -3.28 1.469 -3.28 3.28 s 1.468 3.28 3.28 3.28 h 191.753 c 1.812 0 3.28 -1.469 3.28 -3.28 S 410.487 432.607 408.676 432.607 z" stroke-linecap="round" />
</g>
<g transform="matrix(0.39 0 0 0.39 271.98 270.27)" id="A_-_142_x2C__cart_x2C__add_to_cart_x2C__basket_x2C__shopping"  >
<path style="stroke: none; stroke-width: 1; stroke-dasharray: none; stroke-linecap: butt; stroke-dashoffset: 0; stroke-linejoin: miter; stroke-miterlimit: 4; fill: rgb(0,0,0); fill-rule: nonzero; opacity: 1;"  transform=" translate(-440.26, -435.89)" d="M 452.234 432.607 h -23.942 c -1.812 0 -3.28 1.469 -3.28 3.28 s 1.469 3.28 3.28 3.28 h 23.942 c 1.811 0 3.279 -1.469 3.279 -3.28 S 454.045 432.607 452.234 432.607 z" stroke-linecap="round" />
</g>
<g transform="matrix(0.39 0 0 0.39 134.84 270.07)" id="A_-_142_x2C__cart_x2C__add_to_cart_x2C__basket_x2C__shopping"  >
<path style="stroke: none; stroke-width: 1; stroke-dasharray: none; stroke-linecap: butt; stroke-dashoffset: 0; stroke-linejoin: miter; stroke-miterlimit: 4; fill: rgb(0,0,0); fill-rule: nonzero; opacity: 1;"  transform=" translate(-89.18, -435.37)" d="M 134.615 432.094 H 43.754 c -1.811 0 -3.279 1.469 -3.279 3.279 c 0 1.812 1.469 3.28 3.279 3.28 h 90.861 c 1.811 0 3.279 -1.469 3.279 -3.28 C 137.895 433.563 136.426 432.094 134.615 432.094 z" stroke-linecap="round" />
</g>
</svg>